<svg width="64" height="64" viewBox="0 0 120 120" fill="none" xmlns="http://www.w3.org/2000/svg">
  <circle cx="52" cy="56" r="44" fill="#FF6600"/>
  <path d="M20 28C10 40 8 56 12 72C16 88 28 98 42 102C30 98 18 86 14 68C10 50 14 36 20 28Z" fill="#0F1923"/>
  <path d="M22 32C30 56 50 78 82 86" stroke="white" stroke-width="2.5" stroke-linecap="round" opacity="0.5"/>
  <path d="M52 12C52 12 40 44 52 56C64 68 92 56 92 56" stroke="white" stroke-width="2.5" stroke-linecap="round" opacity="0.4"/>
  <text x="42" y="70" font-family="Impact,sans-serif" font-size="52" font-weight="bold" fill="white" opacity="0.9" font-style="italic">E</text>
  <g transform="translate(76, 10)">
    <ellipse cx="18" cy="16" rx="16" ry="14" fill="#0F1923"/>
    <path d="M10 28L6 36L18 26" fill="#0F1923"/>
    <text x="18" y="22" font-family="sans-serif" font-size="20" font-weight="700" fill="white" text-anchor="middle">?</text>
    <line x1="34" y1="4" x2="38" y2="0" stroke="#0F1923" stroke-width="2.5" stroke-linecap="round"/>
    <line x1="36" y1="12" x2="42" y2="10" stroke="#0F1923" stroke-width="2" stroke-linecap="round"/>
  </g>
</svg>
